<svg width="64" height="64" viewBox="0 0 64 64" fill="none" xmlns="http://www.w3.org/2000/svg">
<g id="Group 1547764275">
<circle id="Ellipse 119" cx="32" cy="32" r="32" fill="#0A4005"/>
<g id="Group 1547764299">
<path id="Vector" d="M46.2446 48.6793C42.4186 51.9695 37.4416 53.9579 32.0002 53.9579C26.5588 53.9579 21.6084 51.9804 17.7871 48.7048L32.0289 34.4641L46.2442 48.6793H46.2446Z" fill="#ABDEAE"/>
<path id="Vector_2" d="M32.0002 10.249C19.9315 10.249 10.1465 20.0339 10.1465 32.1042C10.1465 36.3935 11.382 40.3943 13.5175 43.769C14.1029 44.6956 14.7567 45.5753 15.4721 46.4014L17.8189 44.0546L32.0294 29.8451L48.555 46.3708C49.2693 45.5432 49.9209 44.6625 50.5059 43.7344C52.6269 40.367 53.8551 36.3782 53.8551 32.1034C53.8554 20.0339 44.0705 10.249 32.0002 10.249ZM48.1999 40.2206L47.9995 40.6201L32.029 24.6485L16.0213 40.6558L15.8206 40.2577C14.5549 37.7474 13.8858 34.9278 13.8858 32.1038C13.8858 22.1149 22.0116 13.9883 32.0002 13.9883C41.9888 13.9883 50.1158 22.1149 50.1158 32.1038C50.1158 34.9128 49.4532 37.7193 48.2002 40.2202L48.1999 40.2206Z" fill="#ABDEAE"/>
</g>
</g>
</svg>
